<svg xmlns="http://www.w3.org/2000/svg" viewBox="0 0 640 640" width="640" height="640" shape-rendering="crispEdges"><title>Robin Realms #7</title><desc>Plaid Shirt Long Flow hero of Golden Fields — Robin Realms 1/1 #7</desc><defs><linearGradient id="bg7" x1="0" y1="0" x2="0" y2="1"><stop offset="0" stop-color="#f2cf4a"/><stop offset="1" stop-color="#dcb223"/></linearGradient></defs><rect x="0" y="0" width="640" height="640" fill="url(#bg7)"/><g><rect x="0" y="0" width="14" height="640" fill="#8a6a12" opacity="0.1"/><rect x="30" y="0" width="14" height="640" fill="#8a6a12" opacity="0.1"/><rect x="60" y="0" width="14" height="640" fill="#8a6a12" opacity="0.1"/><rect x="90" y="0" width="14" height="640" fill="#8a6a12" opacity="0.1"/><rect x="120" y="0" width="14" height="640" fill="#8a6a12" opacity="0.1"/><rect x="150" y="0" width="14" height="640" fill="#8a6a12" opacity="0.1"/><rect x="180" y="0" width="14" height="640" fill="#8a6a12" opacity="0.1"/><rect x="210" y="0" width="14" height="640" fill="#8a6a12" opacity="0.1"/><rect x="240" y="0" width="14" height="640" fill="#8a6a12" opacity="0.1"/><rect x="270" y="0" width="14" height="640" fill="#8a6a12" opacity="0.1"/><rect x="300" y="0" width="14" height="640" fill="#8a6a12" opacity="0.1"/><rect x="330" y="0" width="14" height="640" fill="#8a6a12" opacity="0.1"/><rect x="360" y="0" width="14" height="640" fill="#8a6a12" opacity="0.1"/><rect x="390" y="0" width="14" height="640" fill="#8a6a12" opacity="0.1"/><rect x="420" y="0" width="14" height="640" fill="#8a6a12" opacity="0.1"/><rect x="450" y="0" width="14" height="640" fill="#8a6a12" opacity="0.1"/><rect x="480" y="0" width="14" height="640" fill="#8a6a12" opacity="0.1"/><rect x="510" y="0" width="14" height="640" fill="#8a6a12" opacity="0.1"/><rect x="540" y="0" width="14" height="640" fill="#8a6a12" opacity="0.1"/><rect x="570" y="0" width="14" height="640" fill="#8a6a12" opacity="0.1"/><rect x="600" y="0" width="14" height="640" fill="#8a6a12" opacity="0.1"/><rect x="630" y="0" width="14" height="640" fill="#8a6a12" opacity="0.1"/></g><defs><radialGradient id="vg7" cx="0.5" cy="0.45" r="0.75"><stop offset="0.55" stop-color="#000" stop-opacity="0"/><stop offset="1" stop-color="#000" stop-opacity="0.3"/></radialGradient></defs><rect x="0" y="0" width="640" height="640" fill="url(#vg7)"/><g><ellipse cx="320" cy="52" rx="86" ry="20" fill="none" stroke="#ffe89a" stroke-width="10" opacity="0.9"><animate attributeName="opacity" values="0.45;1;0.45" dur="2.6s" repeatCount="indefinite"/></ellipse><ellipse cx="320" cy="52" rx="104" ry="26" fill="none" stroke="#fff6cf" stroke-width="4" opacity="0.5"/></g><g><ellipse cx="320" cy="596" rx="214" ry="60" fill="#8fa6b5"/><ellipse cx="320" cy="586" rx="214" ry="58" fill="#c3d6e2"/><ellipse cx="320" cy="572" rx="204" ry="52" fill="#eef5fa"/><rect x="336.37" y="600.06" width="8" height="8" fill="#ffffff" opacity="0.75"/><rect x="401.64" y="561.47" width="8" height="8" fill="#ffffff" opacity="0.75"/><rect x="236.2" y="592.43" width="8" height="8" fill="#ffffff" opacity="0.75"/><rect x="202.75" y="596.81" width="8" height="8" fill="#ffffff" opacity="0.75"/><rect x="356.92" y="565.87" width="8" height="8" fill="#ffffff" opacity="0.75"/><rect x="361.08" y="534.86" width="8" height="8" fill="#ffffff" opacity="0.75"/><rect x="221.76" y="579.02" width="8" height="8" fill="#ffffff" opacity="0.75"/><rect x="443.52" y="563.92" width="8" height="8" fill="#ffffff" opacity="0.75"/><rect x="240.21" y="606" width="8" height="8" fill="#ffffff" opacity="0.75"/><rect x="182.09" y="568.5" width="8" height="8" fill="#ffffff" opacity="0.75"/><rect x="264.99" y="592.26" width="8" height="8" fill="#ffffff" opacity="0.75"/><rect x="364.06" y="558.74" width="8" height="8" fill="#ffffff" opacity="0.75"/><rect x="334.3" y="541.1" width="8" height="8" fill="#ffffff" opacity="0.75"/><rect x="392.67" y="584.82" width="8" height="8" fill="#ffffff" opacity="0.75"/><rect x="366.02" y="609.36" width="8" height="8" fill="#ffffff" opacity="0.75"/><rect x="253.54" y="542.78" width="8" height="8" fill="#ffffff" opacity="0.75"/><rect x="251.86" y="597.26" width="8" height="8" fill="#ffffff" opacity="0.75"/><rect x="309.49" y="546.48" width="8" height="8" fill="#ffffff" opacity="0.75"/><rect x="401.46" y="580.41" width="8" height="8" fill="#ffffff" opacity="0.75"/><rect x="348.05" y="561.17" width="8" height="8" fill="#ffffff" opacity="0.75"/><rect x="279.84" y="587.69" width="8" height="8" fill="#ffffff" opacity="0.75"/><rect x="205.4" y="580.98" width="8" height="8" fill="#ffffff" opacity="0.75"/><rect x="361.39" y="589.09" width="8" height="8" fill="#ffffff" opacity="0.75"/><rect x="283.33" y="597.88" width="8" height="8" fill="#ffffff" opacity="0.75"/><rect x="235.61" y="565.39" width="8" height="8" fill="#ffffff" opacity="0.75"/><rect x="390.73" y="550.3" width="8" height="8" fill="#ffffff" opacity="0.75"/><rect x="446.64" y="572.88" width="8" height="8" fill="#ffffff" opacity="0.75"/><rect x="193.85" y="577.36" width="8" height="8" fill="#ffffff" opacity="0.75"/><rect x="200.62" y="570.31" width="8" height="8" fill="#ffffff" opacity="0.75"/><rect x="383.25" y="576.45" width="8" height="8" fill="#ffffff" opacity="0.75"/><rect x="474.66" y="559.91" width="8" height="8" fill="#ffffff" opacity="0.75"/><rect x="195.58" y="546.61" width="8" height="8" fill="#ffffff" opacity="0.75"/><rect x="399.28" y="579.32" width="8" height="8" fill="#ffffff" opacity="0.75"/><rect x="272.45" y="567.37" width="8" height="8" fill="#ffffff" opacity="0.75"/><ellipse cx="455.04" cy="565.19" rx="15.68" ry="12.18" fill="#8fa6b5" opacity="0.7"/><ellipse cx="485.5" cy="574.34" rx="20.5" ry="11.7" fill="#8fa6b5" opacity="0.7"/><ellipse cx="429.79" cy="585.73" rx="16.64" ry="8.19" fill="#8fa6b5" opacity="0.7"/></g><ellipse cx="320" cy="608" rx="118" ry="22" fill="#000000" opacity="0.28"/><g><rect x="140" y="320" width="60" height="220" fill="#8a5a3c"/><rect x="440" y="320" width="60" height="220" fill="#8a5a3c"/><rect x="240" y="520" width="160" height="100" fill="#8a5a3c"/><rect x="180" y="300" width="280" height="240" fill="#8a5a3c"/><rect x="260" y="260" width="120" height="60" fill="#8a5a3c"/><rect x="200" y="60" width="240" height="240" fill="#8a5a3c"/><rect x="260" y="520" width="40" height="80" fill="#8a4a1e"/><rect x="340" y="520" width="40" height="80" fill="#8a4a1e"/><rect x="240" y="580" width="60" height="40" fill="#5b3a1e"/><rect x="340" y="580" width="60" height="40" fill="#5b3a1e"/><rect x="200" y="320" width="240" height="200" fill="#b0632a"/><rect x="200" y="320" width="20" height="200" fill="#8a4a1e"/><rect x="240" y="320" width="20" height="200" fill="#8a4a1e"/><rect x="280" y="320" width="20" height="200" fill="#8a4a1e"/><rect x="320" y="320" width="20" height="200" fill="#8a4a1e"/><rect x="360" y="320" width="20" height="200" fill="#8a4a1e"/><rect x="400" y="320" width="20" height="200" fill="#8a4a1e"/><rect x="200" y="320" width="240" height="20" fill="#8a4a1e" opacity="0.6"/><rect x="200" y="360" width="240" height="20" fill="#8a4a1e" opacity="0.6"/><rect x="200" y="400" width="240" height="20" fill="#8a4a1e" opacity="0.6"/><rect x="200" y="440" width="240" height="20" fill="#8a4a1e" opacity="0.6"/><rect x="200" y="480" width="240" height="20" fill="#8a4a1e" opacity="0.6"/><rect x="300" y="320" width="20" height="200" fill="#883b02"/><rect x="200" y="480" width="240" height="40" fill="#f0d29a"/><rect x="160" y="340" width="40" height="160" fill="#b0632a"/><rect x="440" y="340" width="40" height="160" fill="#b0632a"/><rect x="160" y="500" width="40" height="40" fill="#f6d3b0"/><rect x="440" y="500" width="40" height="40" fill="#f6d3b0"/><rect x="280" y="260" width="80" height="60" fill="#dcae87"/><rect x="160" y="100" width="40" height="260" fill="#3f6b34"/><rect x="440" y="100" width="40" height="260" fill="#3f6b34"/><rect x="160" y="100" width="20" height="180" fill="#5d9149"/><rect x="220" y="80" width="200" height="200" fill="#f6d3b0"/><rect x="380" y="80" width="40" height="200" fill="#dcae87"/><rect x="200" y="180" width="20" height="40" fill="#f6d3b0"/><rect x="420" y="180" width="20" height="40" fill="#f6d3b0"/><rect x="260" y="140" width="40" height="20" fill="#3f6b34"/><rect x="340" y="140" width="40" height="20" fill="#3f6b34"/><rect x="260" y="180" width="40" height="40" fill="#fdfaf2"/><rect x="340" y="180" width="40" height="40" fill="#fdfaf2"/><rect x="280" y="180" width="20" height="40" fill="#d09028"/><rect x="340" y="180" width="20" height="40" fill="#d09028"/><rect x="260" y="180" width="120" height="40" fill="#f6d3b0" opacity="0"><animate attributeName="opacity" values="0;0;1;0;0" keyTimes="0;0.9;0.94;0.98;1" dur="4.4s" repeatCount="indefinite"/></rect><rect x="300" y="240" width="40" height="20" fill="#8a5a3c"/><rect x="220" y="80" width="200" height="60" fill="#3f6b34"/><rect x="200" y="100" width="20" height="140" fill="#3f6b34"/><rect x="420" y="100" width="20" height="140" fill="#3f6b34"/><rect x="240" y="80" width="80" height="20" fill="#5d9149"/><rect x="220" y="140" width="60" height="20" fill="#3f6b34"/><rect x="200" y="120" width="240" height="20" fill="#f0d29a"/><rect x="420" y="120" width="40" height="20" fill="#f0d29a"/><rect x="440" y="140" width="20" height="40" fill="#f0d29a"/><g><rect x="440" y="380" width="100" height="140" fill="#efe6cf"/><rect x="440" y="380" width="100" height="20" fill="#c9b28a"/><rect x="440" y="500" width="100" height="20" fill="#c9b28a"/><rect x="460" y="420" width="60" height="20" fill="#a3946f" opacity="0.8"/><rect x="460" y="440" width="60" height="20" fill="#a3946f" opacity="0.8"/><rect x="460" y="460" width="60" height="20" fill="#a3946f" opacity="0.8"/><animateTransform attributeName="transform" type="rotate" values="-3 460 500;3 460 500;-3 460 500" dur="4.85s" repeatCount="indefinite"/></g><animateTransform attributeName="transform" type="translate" values="-5,0;5,0;-5,0" dur="4.1s" repeatCount="indefinite"/></g><g><rect x="464.96" y="470.08" width="10" height="10" fill="#ffe066"><animate attributeName="opacity" values="1;0.1;1" dur="1.45s" begin="0.01s" repeatCount="indefinite"/><animateTransform attributeName="transform" type="translate" values="0,0;-26.54,-20.18;0,0" dur="7.67s" repeatCount="indefinite"/></rect><rect x="337.24" y="455.68" width="10" height="10" fill="#ffe066"><animate attributeName="opacity" values="1;0.1;1" dur="1.71s" begin="1.66s" repeatCount="indefinite"/><animateTransform attributeName="transform" type="translate" values="0,0;7.92,-16.04;0,0" dur="6.63s" repeatCount="indefinite"/></rect><rect x="309.92" y="350.2" width="10" height="10" fill="#ffe066"><animate attributeName="opacity" values="1;0.1;1" dur="1.99s" begin="0.84s" repeatCount="indefinite"/><animateTransform attributeName="transform" type="translate" values="0,0;13.65,-38.99;0,0" dur="4.64s" repeatCount="indefinite"/></rect><rect x="400.76" y="332.85" width="10" height="10" fill="#ffe066"><animate attributeName="opacity" values="1;0.1;1" dur="2.38s" begin="0.57s" repeatCount="indefinite"/><animateTransform attributeName="transform" type="translate" values="0,0;-18.83,-17.21;0,0" dur="6.26s" repeatCount="indefinite"/></rect><rect x="210.36" y="362.61" width="10" height="10" fill="#ffe066"><animate attributeName="opacity" values="1;0.1;1" dur="1.7s" begin="1.26s" repeatCount="indefinite"/><animateTransform attributeName="transform" type="translate" values="0,0;-26.18,-20.87;0,0" dur="6.23s" repeatCount="indefinite"/></rect><rect x="401.48" y="530.62" width="10" height="10" fill="#ffe066"><animate attributeName="opacity" values="1;0.1;1" dur="1.73s" begin="0.34s" repeatCount="indefinite"/><animateTransform attributeName="transform" type="translate" values="0,0;-11.73,-26.09;0,0" dur="7.47s" repeatCount="indefinite"/></rect><rect x="85.47" y="415.8" width="10" height="10" fill="#ffe066"><animate attributeName="opacity" values="1;0.1;1" dur="2.51s" begin="0.78s" repeatCount="indefinite"/><animateTransform attributeName="transform" type="translate" values="0,0;-1.12,-21.96;0,0" dur="5.3s" repeatCount="indefinite"/></rect><rect x="318.55" y="317.17" width="10" height="10" fill="#ffe066"><animate attributeName="opacity" values="1;0.1;1" dur="2.08s" begin="0.24s" repeatCount="indefinite"/><animateTransform attributeName="transform" type="translate" values="0,0;5.05,-38.69;0,0" dur="5.66s" repeatCount="indefinite"/></rect><rect x="524.01" y="518.48" width="10" height="10" fill="#ffe066"><animate attributeName="opacity" values="1;0.1;1" dur="1.62s" begin="0.86s" repeatCount="indefinite"/><animateTransform attributeName="transform" type="translate" values="0,0;18.13,-15.63;0,0" dur="4.76s" repeatCount="indefinite"/></rect></g></svg>